<?xml version="1.0" encoding="UTF-8"?>
<!DOCTYPE svg PUBLIC "-//W3C//DTD SVG 1.1//EN" "http://www.w3.org/Graphics/SVG/1.1/DTD/svg11.dtd">
<!-- Creator: CorelDRAW 2021 (64 Bit) -->
<svg xmlns="http://www.w3.org/2000/svg" xml:space="preserve" width="3.9447mm" height="3.9446mm" version="1.1" style="shape-rendering:geometricPrecision; text-rendering:geometricPrecision; image-rendering:optimizeQuality; fill-rule:evenodd; clip-rule:evenodd"
viewBox="0 0 25.27 25.27"
 xmlns:xlink="http://www.w3.org/1999/xlink"
 xmlns:xodm="http://www.corel.com/coreldraw/odm/2003">
 <defs>
  <style type="text/css">
   <![CDATA[
    .fil0 {fill:#E6E6E6}
    .fil1 {fill:#5C7F95;fill-rule:nonzero}
   ]]>
  </style>
 </defs>
 <g id="header_x0020_seta">
  <metadata id="CorelCorpID_0Corel-Layer"/>
  <g id="_1937367385488">
   <rect class="fil0" x="0" y="-0" width="25.27" height="25.27"/>
   <path class="fil1" d="M7.85 8.41l2.08 0 0 -1.06c0,-1.19 0.13,-2.08 0.38,-2.67 0.26,-0.58 0.72,-1.06 1.4,-1.44 0.68,-0.37 1.54,-0.55 2.58,-0.55 1.07,0 2.11,0.16 3.13,0.48l-0.5 2.61c-0.6,-0.14 -1.17,-0.21 -1.72,-0.21 -0.54,0 -0.93,0.13 -1.17,0.38 -0.23,0.25 -0.36,0.74 -0.36,1.46l0 1 2.8 0 0 2.95 -2.8 0 0 11.21 -3.74 0 0 -11.21 -2.08 0 0 -2.95z"/>
  </g>
 </g>
</svg>
