<?xml version="1.0" encoding="UTF-8"?>
<!DOCTYPE svg PUBLIC "-//W3C//DTD SVG 1.1//EN" "http://www.w3.org/Graphics/SVG/1.1/DTD/svg11.dtd">
<!-- Creator: CorelDRAW 2021 (64 Bit) -->
<svg xmlns="http://www.w3.org/2000/svg" xml:space="preserve" width="3.9447mm" height="3.9446mm" version="1.1" style="shape-rendering:geometricPrecision; text-rendering:geometricPrecision; image-rendering:optimizeQuality; fill-rule:evenodd; clip-rule:evenodd"
viewBox="0 0 31.37 31.37"
 xmlns:xlink="http://www.w3.org/1999/xlink"
 xmlns:xodm="http://www.corel.com/coreldraw/odm/2003">
 <defs>
  <style type="text/css">
   <![CDATA[
    .fil1 {fill:#5C7F95}
    .fil0 {fill:#E6E6E6}
   ]]>
  </style>
 </defs>
 <g id="header_x0020_seta">
  <metadata id="CorelCorpID_0Corel-Layer"/>
  <g id="_1973616576416">
   <rect class="fil0" x="0" y="-0" width="31.37" height="31.37"/>
   <path class="fil1" d="M23.44 22.25c-0,0.92 -0.26,1.18 -1.19,1.18 -2.18,0 -4.37,0 -6.56,0 -2.19,0 -4.37,0 -6.56,0 -0.92,0 -1.19,-0.27 -1.19,-1.18 -0,-2.45 0.03,-4.89 -0.02,-7.33 -0.01,-0.68 0.2,-0.84 0.83,-0.8 0.93,0.05 0.94,0.01 0.83,0.91 -0.36,3.14 1.78,6.09 4.86,6.71 3.14,0.63 6.29,-1.28 7.16,-4.32 0.27,-0.95 0.32,-1.92 0.13,-2.89 -0.07,-0.33 0,-0.39 0.33,-0.41 1.38,-0.09 1.38,-0.1 1.38,1.29 0,2.28 0,4.57 0,6.84zm-7.75 -10.46c2.11,0.01 3.9,1.81 3.89,3.91 -0.02,2.11 -1.83,3.9 -3.93,3.87 -2.12,-0.03 -3.9,-1.86 -3.85,-3.94 0.05,-2.11 1.81,-3.84 3.89,-3.84zm5.77 -3.86c1.97,0 1.97,0 1.97,2.01 0,1.91 0,1.91 -1.94,1.91 -1.98,0 -1.98,0 -1.98,-1.95 0,-1.98 0,-1.98 1.95,-1.98zm1.62 -2.28c-4.92,0 -9.84,0 -14.76,0 -1.76,0 -2.67,0.91 -2.67,2.68 -0.01,2.45 0,4.9 0,7.35 0,2.48 -0.01,4.94 0,7.41 0,1.68 0.93,2.62 2.6,2.62 4.94,0.01 9.89,0 14.83,0 1.72,0 2.63,-0.92 2.63,-2.65 0,-4.92 0,-9.84 0,-14.76 -0,-1.73 -0.91,-2.65 -2.63,-2.65z"/>
  </g>
 </g>
</svg>
