<?xml version="1.0" encoding="UTF-8"?>
<!DOCTYPE svg PUBLIC "-//W3C//DTD SVG 1.1//EN" "http://www.w3.org/Graphics/SVG/1.1/DTD/svg11.dtd">
<!-- Creator: CorelDRAW 2021 (64 Bit) -->
<svg xmlns="http://www.w3.org/2000/svg" xml:space="preserve" width="3.9447mm" height="3.9446mm" version="1.1" style="shape-rendering:geometricPrecision; text-rendering:geometricPrecision; image-rendering:optimizeQuality; fill-rule:evenodd; clip-rule:evenodd"
viewBox="0 0 41.36 41.35"
 xmlns:xlink="http://www.w3.org/1999/xlink"
 xmlns:xodm="http://www.corel.com/coreldraw/odm/2003">
 <defs>
  <style type="text/css">
   <![CDATA[
    .fil0 {fill:#E6E6E6}
    .fil1 {fill:#5C7F95;fill-rule:nonzero}
   ]]>
  </style>
 </defs>
 <g id="header_x0020_seta">
  <metadata id="CorelCorpID_0Corel-Layer"/>
  <g id="_1973616548480">
   <rect class="fil0" x="0" y="-0" width="41.36" height="41.36"/>
   <g>
    <path class="fil1" d="M8.29 32.5l0 -17.12 4.54 0 0 17.12 -4.54 0zm0 -19.44l0 -4.2 4.54 0 0 4.2 -4.54 0z"/>
    <path class="fil1" d="M33.06 32.5l-4.53 0 0 -8.74c0,-1.86 -0.09,-3.04 -0.29,-3.59 -0.19,-0.54 -0.5,-0.97 -0.94,-1.26 -0.43,-0.31 -0.96,-0.45 -1.57,-0.45 -0.79,0 -1.5,0.22 -2.12,0.65 -0.62,0.42 -1.05,1 -1.28,1.71 -0.23,0.71 -0.34,2.02 -0.34,3.94l0 7.75 -4.53 0 0 -17.12 4.21 0 0 2.52c1.5,-1.94 3.37,-2.91 5.65,-2.91 1,0 1.92,0.18 2.74,0.54 0.83,0.35 1.46,0.81 1.88,1.37 0.43,0.56 0.72,1.19 0.89,1.9 0.17,0.71 0.25,1.73 0.25,3.05l0 10.64z"/>
   </g>
  </g>
 </g>
</svg>
