<?xml version="1.0" encoding="UTF-8"?>
<svg id="Camada_2" data-name="Camada 2" xmlns="http://www.w3.org/2000/svg" viewBox="0 0 85.24 32.09">
  <defs>
    <style>
      .cls-1 {
        fill: #5c7f94;
        fill-rule: evenodd;
      }
    </style>
  </defs>
  <g id="Camada_1-2" data-name="Camada 1">
    <path class="cls-1" d="m50.57,16.13h1.08c1.39,0,1.87.61,1.87,1.9,0,1.47-.38,2.03-1.76,2.03h-1.19v-3.93Zm1.17,8.95c3,0,3.6-1.5,3.6-2.55,0-.86-.81-2.11-2.67-2.32v-.03c1.12-.14,2.36-.78,2.36-2.15,0-.86-.54-2.22-3.28-2.22h-3.6v.32h1.07v8.63h-1.07v.32h3.58Zm-1.17-4.71h.65c1.67,0,2.51.33,2.51,2.1s-.39,2.29-2,2.29h-1.17v-4.39Zm-10.33,4.71v-.32h1.22v-8.63h-1.22v-.32h7.04v2.26h-.31c-.24-1.65-1.1-1.94-2.36-1.94h-1.8v4c1.4,0,1.85-.01,2.04-1.49h.31v3.51h-.31c-.08-1.49-.67-1.67-2.04-1.68v4.29h1.68c1.83,0,2.44-.22,2.8-2.28h.36l-.18,2.6h-7.23Zm-1.57-8.95h-1.37v-.32h2.86v.32h-1.11l-2.42,4.65v3.98h1.24v.32h-3.8v-.32h1.22v-3.98l-2.68-4.65h-1.03v-.32h3.75v.32h-1.22l2.35,4.17,2.22-4.17Zm-11.17,8.95v-.32h-1.19l.99-3.05h2.65l.96,3.05h-1.12v.32h3.5v-.32h-.97l-2.86-9.08h-.54l-3.01,9.08h-1.1v.32h2.71Zm-.08-3.76l1.22-3.76h.03l1.14,3.76h-2.39Zm-5.24-1.22v-3.97h-1.08v-.32h3.51v.32h-1.08v8.63h1.08v.32h-3.51v-.32h1.08v-4.26h-4v4.26h1.08v.32h-3.51v-.32h1.08v-8.63h-1.08v-.32h3.51v.32h-1.08v3.97h4Zm-12.8,5.03h-.19v-2.39h.26c.37,1.26,1.33,2.24,2.68,2.24,1.19,0,2.33-.79,2.33-2.01,0-.82-.19-1.19-1.26-1.62-.51-.19-2.67-.9-2.87-1.04-.81-.5-1.12-1.35-1.12-2.12,0-.57.17-1.06.57-1.58.42-.54,1.1-.99,2.15-.99.64,0,1.54.4,1.82.61l.53-.4h.19v2.17h-.28c-.31-1.15-1.12-2.05-2.36-2.05-.94,0-1.97.65-1.97,1.69,0,2.3,5.26.82,5.26,4.6,0,1.9-1.19,3.08-3.01,3.08-.78,0-1.56-.21-2.12-.78l-.6.61Zm-4.43-9.32v.32h-1.17v7.98c0,1.36-1.12,2.26-2.35,2.26-.61,0-1.43-.39-1.43-1.21,0-.5.26-.83.75-.83.4,0,.72.29.72.71s-.26.56-.26.71c0,.18.29.22.44.22.49,0,.78-.39.78-.9v-8.94h-1.24v-.32h3.75Zm.01,9.82c0-.42.39-.76.79-.76s.85.33.85.76c0,.47-.4.79-.85.79s-.79-.33-.79-.79Z"/>
    <path class="cls-1" d="m53.66,30.49h-.72s.34-.93.37-1.03c.03.09.33.98.35,1.03m.84.8h0s-.89-2.6-.89-2.6h-.15s-.97,2.61-.97,2.61h-.3s-.02.11-.02.11l.86.02h.02v-.12s-.35-.02-.4-.02c.02-.05.24-.68.24-.68,0,0,.84.01.84.01,0,0,0,0,0,0,0,.03.19.59.22.66h-.39l-.02.12,1.28.02.02-.12s-.34-.02-.34-.02Zm-7.73-2.41c.45,0,.72.03.87.18.1.1.21.4.21.93,0,.25-.01.57-.1.83-.16.48-.46.48-.92.47h-.08s.02-2.37.02-2.41Zm1.04.04c-.22-.13-.44-.18-.87-.18h-1.09l-.02.12v.02h.41l-.02,2.43-.37-.02-.02.12.98.02h.04c.32,0,.65,0,.94-.16.4-.22.64-.67.64-1.18s-.22-.92-.62-1.16Zm-5.8.69h0s0,0,0,0Zm-2.33-.02h0s0,0,0,0h0Zm.04-.85s-.06.87-.06.87l.15.02c.09-.5.24-.78.8-.75l-.02,2.43-.4-.02-.02.12v.02h1.36l.02-.12-.44-.02.02-2.43s0,0,0,0c.54,0,.69.27.75.75l.14.02s-.02-.87-.02-.87l-2.29-.02Zm-3.56,1.8h0m-.82.75h-.52l.02-2.43.39.02.02-.12-1.33-.02-.02.12.41.02-.02,2.43-.37-.02-.02.12v.02h2.22s.06-.91.06-.91l-.14-.02c-.04.54-.26.79-.7.79Zm-10.81-.8h-.72s.34-.93.37-1.03c.03.09.33.98.35,1.03Zm.84.8s-.89-2.6-.89-2.6h-.15s-.97,2.61-.97,2.61h-.3s-.02.11-.02.11l.86.02h.02v-.12s-.35-.02-.4-.02c.02-.05.24-.68.24-.68,0,0,.84.01.84.01,0,0,0,0,0,0,0,.03.19.59.22.66h-.39l-.02.12,1.28.02.02-.12s-.34-.02-.34-.02c0,0,0,0,0,0Zm-6.02-2.41l.02-.12-1.31-.02-.02.12.41.02-.02,2.43-.37-.02-.02.12,1.31.02.02-.12s-.36-.02-.39-.02v-2.43l.37.02Zm-6.21,2.47c-.27-.01-.47-.17-.55-.43-.07-.23-.07-.51-.07-.73v-.06s0-.15,0-.15c0-.3-.01-.67.15-.91.13-.2.25-.26.51-.26.39,0,.67.27.73.69l.13.02.02-.79-.11-.02s-.17.17-.17.17c-.14-.14-.36-.21-.6-.21-.2,0-.4.05-.55.13-.45.27-.73.76-.73,1.29,0,.66.53,1.39,1.24,1.39.27,0,.52-.09.69-.23,0,0,0,0,0,0,0,.02.14.19.14.19h.1s.02-.83.02-.83v-.02h-.13c-.16.53-.42.77-.83.75Zm-11.77-1.47s0,0,0,.01c0,0,0,0,0,0,0,0,0,0,0-.01Zm.53-.09h0s0,0,0,0c0,0,0,0,0,0Zm.7.85s-.03.05-.05.07h0s.03-.05.05-.07Zm-1.07-1.54c0-.17.12-.28.3-.28.22,0,.32.12.32.39,0,.25-.11.4-.33.46,0-.02-.18-.27-.18-.27h0c-.07-.1-.12-.21-.12-.3Zm.64,1.97c-.19.15-.36.22-.53.22-.19,0-.3-.1-.41-.26-.11-.15-.22-.39-.22-.56,0-.28.16-.37.43-.49h0s.67,1,.73,1.09Zm1.17-1.19l.02-.12-.9-.02-.02.12.41.02s0,.02,0,.03c-.02.27-.13.56-.31.78h0c-.05-.12-.59-.88-.62-.91.03-.01.06-.02.1-.04.37-.14.55-.32.55-.55,0-.36-.38-.49-.71-.49-.36,0-.72.19-.72.61,0,.15.07.34.22.59-.02,0-.03.01-.05.02-.35.13-.8.34-.8.84s.44.75.87.75c.32,0,.64-.11.9-.32,0,0,0,0,0,0,0,.03.14.23.14.23h0s.93,0,.93,0l.02-.12s-.41-.02-.41-.02h0s-.33-.49-.33-.49c.24-.22.36-.64.36-.93l.36.02Z"/>
    <path class="cls-1" d="m64.49,22.91v-11.07h5.69v.05l-5.69,11.02Zm0-22.91h20.75v10.93l-.06-.07c-1.25-1.48-2.95-2.22-5.11-2.22s-3.86.75-5.11,2.24c-1.25,1.48-1.88,3.43-1.88,5.86v-.05c0,2.43.63,4.39,1.88,5.86,1.25,1.48,2.95,2.22,5.11,2.22s3.88-.73,5.11-2.19l.06-.07v9.58h-20.75v-7.58h2.74c.3,0,.49-.1.6-.29l7.51-15.04v-.31h-10.85V0Zm15.81,29.14h.59c.07,0,.11.03.12.09.07.34.38.52.92.52.29,0,.5-.05.65-.14.14-.1.22-.21.22-.35,0-.22-.17-.33-.5-.36l-.97-.08c-.38-.03-.66-.13-.86-.3-.2-.17-.3-.39-.3-.67,0-.34.15-.63.44-.88.29-.24.7-.37,1.23-.37s.95.11,1.22.32c.27.21.41.48.41.8,0,.07-.04.11-.12.11h-.62c-.06,0-.1-.03-.11-.09-.05-.29-.32-.43-.8-.43-.26,0-.46.05-.6.14-.15.09-.22.21-.22.35,0,.19.15.29.45.32l.96.08c.41.03.72.15.92.34.2.19.3.42.3.7,0,.33-.15.62-.44.86-.29.24-.71.37-1.27.37s-.98-.11-1.29-.33c-.32-.22-.47-.5-.47-.82v-.05s.01-.06.04-.07c.03-.02.06-.03.09-.03Zm-1.8-1.49c-.24-.22-.52-.34-.86-.34s-.63.11-.86.34c-.24.22-.35.52-.35.88s.12.66.35.88c.24.22.52.34.86.34s.63-.11.86-.34c.24-.22.35-.52.35-.88s-.12-.66-.35-.88Zm-.88-1.04h.01c.57,0,1.06.18,1.45.54.4.36.6.82.6,1.39s-.2,1.04-.6,1.39c-.39.35-.88.53-1.46.53s-1.07-.18-1.46-.53c-.4-.36-.6-.82-.6-1.39s.2-1.03.6-1.39c.4-.36.88-.54,1.45-.54Zm-2.82,3.79h-.6l-1.9-1.94c-.06-.06-.12-.13-.19-.21l-.17-.2-.06-.07h-.02v2.34s0,.04-.02.06c0,.01-.03.02-.05.02h-.7s-.04,0-.05-.02c-.01-.02-.02-.04-.02-.06v-3.58s0-.04.02-.06c.01-.02.03-.03.05-.03h.57l1.88,1.92s.11.11.21.22c.06.07.12.14.17.21l.06.08h.02v-2.34s0-.04.02-.06c.02-.02.04-.02.06-.02h.7s.04,0,.06.02c.02.02.02.04.02.06v3.58s0,.04-.02.06c-.02.02-.04.03-.06.03Zm-6.65-2l-.34.68h1.23l-.34-.69c-.03-.06-.07-.16-.12-.29-.01-.03-.03-.07-.04-.1-.01-.03-.02-.07-.04-.1-.01-.04-.02-.06-.03-.07l-.04-.11h-.04c-.09.27-.17.49-.26.67Zm1.46,1.92l-.28-.57h-1.82l-.27.57c-.03.05-.07.08-.13.08h-.74s-.05-.01-.05-.04c0-.02.01-.04.02-.07l1.75-3.61h.65l1.75,3.61s.02.05.02.07c0,.03-.02.04-.05.04h-.74c-.06,0-.1-.03-.13-.08Zm7.9-17.3c-.59.9-.89,2.15-.89,3.73s.3,2.82.89,3.73c.61.92,1.45,1.38,2.53,1.38s1.92-.46,2.53-1.38c.59-.9.89-2.15.89-3.73s-.3-2.82-.89-3.73c-.61-.92-1.45-1.38-2.53-1.38s-1.92.46-2.53,1.38Z"/>
  </g>
</svg>